<?xml version="1.0" encoding="utf-8"?>
<svg viewBox="0 0 149.54 194.4" xmlns="http://www.w3.org/2000/svg">
  <g id="Layer_2" data-name="Layer 2">
    <g id="Icons">
      <path d="M149.54,127.1A52.41,52.41,0,0,0,99.7,74.82V16a16,16,0,0,0-16-16H16A16,16,0,0,0,0,16V178.38a16,16,0,0,0,16,16H83.68a16,16,0,0,0,16-15A52.4,52.4,0,0,0,149.54,127.1ZM83.68,189.4H16a11,11,0,0,1-11-11V16A11,11,0,0,1,16,5H83.68a11,11,0,0,1,11,11v58.8a52.34,52.34,0,0,0,0,104.56A11,11,0,0,1,83.68,189.4Zm13.52-15a47.34,47.34,0,1,1,47.34-47.34A47.39,47.39,0,0,1,97.2,174.44Z" style="fill: rgb(255, 255, 255);"/>
      <path d="M31.81,29.9H18A3.1,3.1,0,0,0,15,33V46.77A3.1,3.1,0,0,0,18,49.86H31.81a3.09,3.09,0,0,0,3.09-3.09V33A3.09,3.09,0,0,0,31.81,29.9Zm-1.91,15H20v-10h10Z" style="fill: rgb(255, 255, 255);"/>
      <path d="M43,49.86H56.73a3.1,3.1,0,0,0,3.1-3.09V33a3.1,3.1,0,0,0-3.1-3.1H43A3.1,3.1,0,0,0,39.87,33V46.77A3.1,3.1,0,0,0,43,49.86Zm1.91-15h10v10h-10Z" style="fill: rgb(255, 255, 255);"/>
      <path d="M31.81,54.82H18A3.1,3.1,0,0,0,15,57.92V71.69A3.1,3.1,0,0,0,18,74.78H31.81a3.09,3.09,0,0,0,3.09-3.09V57.92A3.09,3.09,0,0,0,31.81,54.82Zm-1.91,15H20v-10h10Z" style="fill: rgb(255, 255, 255);"/>
      <path d="M31.81,79.75H18A3.09,3.09,0,0,0,15,82.84V96.61A3.1,3.1,0,0,0,18,99.7H31.81a3.09,3.09,0,0,0,3.09-3.09V82.84A3.09,3.09,0,0,0,31.81,79.75Zm-1.91,15H20v-10h10Z" style="fill: rgb(255, 255, 255);"/>
      <path d="M59.83,71.69V57.92a3.1,3.1,0,0,0-3.1-3.1H43a3.1,3.1,0,0,0-3.09,3.1V71.69A3.1,3.1,0,0,0,43,74.78H56.73A3.1,3.1,0,0,0,59.83,71.69Zm-5-1.91h-10v-10h10Z" style="fill: rgb(255, 255, 255);"/>
      <path d="M67.88,49.86H81.65a3.1,3.1,0,0,0,3.1-3.09V33a3.1,3.1,0,0,0-3.1-3.1H67.88A3.1,3.1,0,0,0,64.79,33V46.77A3.1,3.1,0,0,0,67.88,49.86Zm1.91-15h10v10h-10Z" style="fill: rgb(255, 255, 255);"/>
      <path d="M42.37,15h15a2.5,2.5,0,0,0,0-5h-15a2.5,2.5,0,0,0,0,5Z" style="fill: rgb(255, 255, 255);"/>
      <path d="M79.09,117.62V104c0-2.33,2.92-4.29,6.37-4.29h4.22a2.5,2.5,0,0,0,0-5H85.46c-6.27,0-11.37,4.17-11.37,9.29v13.63c0,1.77-1.49,3.49-3.8,4.37l-7.68,2.94v4.67l7.67,2.94c2.31.89,3.8,2.6,3.8,4.37v13.63c0,5.13,5.1,9.29,11.37,9.29h4.22a2.5,2.5,0,0,0,0-5H85.46c-3.45,0-6.37-2-6.37-4.29V136.91c0-3.86-2.75-7.41-7-9l-1.58-.6,1.58-.61C76.34,125,79.09,121.48,79.09,117.62Z" style="fill: rgb(255, 255, 255);"/>
      <path d="M124.09,122c-2.31-.88-3.8-2.6-3.8-4.37V104c0-5.12-5.11-9.29-11.38-9.29h-4.23a2.5,2.5,0,0,0,0,5h4.23c3.45,0,6.38,2,6.38,4.29v13.63c0,3.86,2.75,7.41,7,9l1.58.61-1.58.6c-4.27,1.63-7,5.18-7,9v13.63c0,2.33-2.93,4.29-6.38,4.29h-4.23a2.5,2.5,0,1,0,0,5h4.23c6.27,0,11.38-4.16,11.38-9.29V136.91c0-1.77,1.49-3.48,3.8-4.37l7.69-2.94v-4.67Z" style="fill: rgb(255, 255, 255);"/>
    </g>
  </g>
</svg>