<?xml version="1.0" encoding="utf-8"?>
<svg viewBox="0 0 192.54 236.66" xmlns="http://www.w3.org/2000/svg">
  <g id="Layer_2" data-name="Layer 2">
    <g id="Icons">
      <path d="M192.54,118.33c0-17.36-41.23-28-82.74-29.79V54.64h8.53a2.5,2.5,0,0,0,0-5h-7l9.23-18.44a2.51,2.51,0,0,0-.29-2.68L98.22.94a.6.6,0,0,0-.08-.08A1.81,1.81,0,0,0,97.9.62L97.75.5a1.75,1.75,0,0,0-.29-.18L97.3.23A3.82,3.82,0,0,0,96.94.1l-.14,0A2.33,2.33,0,0,0,96.27,0a2.42,2.42,0,0,0-.54.06L95.6.1l-.37.13-.16.09a2.29,2.29,0,0,0-.29.18l-.15.12a2.61,2.61,0,0,0-.23.24l-.08.08L72.25,28.52A2.49,2.49,0,0,0,72,31.2l9.22,18.44h-7a2.5,2.5,0,0,0,0,5h8.53v33.9a277.7,277.7,0,0,0-29.3,2.73,13.07,13.07,0,0,0-25,5.4C9.85,102.27,0,109.75,0,118.33s10.12,16.27,29.26,21.9c14.69,4.32,33.32,7.05,53.48,7.9V190a2.1,2.1,0,0,0,.07.56v0l11,44.13a2.5,2.5,0,0,0,4.85,0l11-44.13v0a2.6,2.6,0,0,0,.07-.56V148.12c8.46-.36,16.68-1.05,24.56-2.07a13.07,13.07,0,0,0,25.06-4.75C180.79,135.68,192.54,127.55,192.54,118.33Zm-87.74,25c-2,.05-4,.09-6,.1V54.64h6ZM96.27,212.1H93.33l-4.89-19.56H104.1L99.21,212.1ZM77.16,30.39,93.77,9.63V24.56a2.62,2.62,0,0,0,.07.57,5.51,5.51,0,1,0,4.86,0,2.62,2.62,0,0,0,.07-.57V9.63l16.61,20.76-9.63,19.25h-19ZM93.77,54.64v88.75c-2,0-4,0-6-.1V54.64Zm-52.21,34a8.09,8.09,0,1,1-8.08,8.09A8.09,8.09,0,0,1,41.56,88.63Zm-10.89,46.8C14.6,130.71,5,124.31,5,118.33c0-5.83,9.12-12,24.44-16.72a13.07,13.07,0,0,0,25.2-4.89c0-.19,0-.38,0-.57a273,273,0,0,1,28.13-2.6v49.57C63.07,142.29,44.94,139.63,30.67,135.43Zm63.1,13v39.15h-6V148.29C89.73,148.35,91.75,148.38,93.77,148.39Zm11,39.15h-6V148.39c2,0,4,0,6-.1Zm41.56-38.61a8.09,8.09,0,1,1,8.08-8.09A8.09,8.09,0,0,1,146.36,148.93Zm12.27-12.59a13.07,13.07,0,0,0-25.35,4.5c0,.11,0,.2,0,.31-7.54,1-15.4,1.62-23.49,2V93.55c48.08,2,77.74,14.33,77.74,24.78C187.54,124.73,176.52,131.55,158.63,136.34Z" style="fill: rgb(255, 255, 255);"/>
    </g>
  </g>
</svg>