<svg xmlns="http://www.w3.org/2000/svg" viewBox="0 0 207.32 179.22"><g id="Layer_2" data-name="Layer 2"><g id="Icons"><path d="M13.76,16.24a2.5,2.5,0,1,0,0-5h0a2.5,2.5,0,1,0,0,5Z"/><path d="M25,16.24a2.5,2.5,0,1,0,0-5h0a2.5,2.5,0,0,0,0,5Z"/><path d="M36.24,16.24a2.5,2.5,0,1,0,0-5h0a2.5,2.5,0,1,0,0,5Z"/><path d="M103.66,44.34H171.1a2.5,2.5,0,0,0,0-5H103.66a2.5,2.5,0,0,0,0,5Z"/><path d="M103.66,61.2H171.1a2.5,2.5,0,0,0,0-5H103.66a2.5,2.5,0,0,0,0,5Z"/><path d="M173.6,75.56a2.5,2.5,0,0,0-2.5-2.5H103.66a2.5,2.5,0,0,0,0,5H171.1A2.5,2.5,0,0,0,173.6,75.56Z"/><path d="M26.75,101.89a2.5,2.5,0,0,0-3.54,0L12,113.13a2.51,2.51,0,0,0,0,3.54l11.24,11.24a2.5,2.5,0,0,0,3.54-3.54l-9.47-9.47,9.47-9.47A2.52,2.52,0,0,0,26.75,101.89Z"/><path d="M59.82,95.8a2.51,2.51,0,0,0-3.36,1.12L39.6,130.64a2.5,2.5,0,0,0,4.48,2.24L60.94,99.16A2.52,2.52,0,0,0,59.82,95.8Z"/><path d="M77.33,101.89a2.5,2.5,0,1,0-3.54,3.54l9.47,9.47-9.47,9.47a2.5,2.5,0,0,0,3.54,3.54l11.24-11.24a2.52,2.52,0,0,0,0-3.54Z"/><path d="M190.46,86.55V8.44A8.45,8.45,0,0,0,182,0H8.44A8.44,8.44,0,0,0,0,8.44V142.68a8.45,8.45,0,0,0,8.44,8.44H129.26v14.36c0,9,19.63,13.74,39,13.74s39-4.72,39-13.74V98C207.32,92.64,200.27,88.78,190.46,86.55ZM202.32,143c0,3-12,8.74-34,8.74s-34-5.78-34-8.74V127.61c7.06,4.38,20.6,6.65,34,6.65s27-2.27,34-6.65Zm0-37.87v15.39c0,3-12,8.74-34,8.74s-34-5.78-34-8.74V105.13l.07,0c.39.24.8.48,1.23.71l.34.17c.35.17.7.35,1.06.51l.42.2c.48.2,1,.41,1.46.6l.08,0c.5.19,1,.38,1.55.56l.5.17,1.3.4.45.14,1.77.48.42.1,1.48.35.59.12,1.67.34.3.06,2,.35.58.09,1.58.23.59.08c.7.09,1.4.18,2.11.25l.32,0,1.87.18.65,0,1.77.14.46,0,2.21.11.56,0,1.75,0,.64,0,2.25,0,2.25,0,.64,0,1.75,0,.55,0,2.21-.11.46,0,1.78-.14.65,0,.25,0h0l.16,0h0l1.46-.14.32,0c.71-.07,1.41-.16,2.1-.25l.6-.08,1.57-.23.59-.09,2-.35.3-.06,1.67-.34.58-.12,1.48-.35.43-.11c.6-.15,1.19-.31,1.76-.47l.46-.14,1.29-.4.51-.17c.53-.18,1-.36,1.54-.56l.09,0c.5-.19,1-.4,1.45-.6l.43-.2q.54-.24,1-.51l.35-.18c.43-.22.84-.46,1.23-.7Zm0-7.09c0,2.2-6.64,5.95-19.08,7.74v0l-.19,0v0c-1.45.2-3,.38-4.57.52h-.16v0c-1.36.12-2.77.22-4.24.29v0h0l-.79,0h-.11s0,0,0,0H173c-1.52.06-3.08.1-4.71.1-22,0-34-5.77-34-8.74s12-8.74,34-8.74c.82,0,1.63,0,2.45,0H171A99,99,0,0,1,187.47,91l.92.18C197.5,93.16,202.32,96.16,202.32,98ZM8.44,5H182a3.44,3.44,0,0,1,3.44,3.44v14H5v-14A3.44,3.44,0,0,1,8.44,5Zm0,141.12A3.44,3.44,0,0,1,5,142.68V27.48H185.46V85.59h-.08c-1.26-.2-2.55-.37-3.86-.53l-.26,0c-1.33-.15-2.69-.28-4.07-.39H177c-1.33-.1-2.68-.17-4-.23h-.41c-1.42,0-2.84-.08-4.26-.08-19.4,0-39,4.72-39,13.74v48.08Zm159.85,28.1c-22,0-34-5.78-34-8.74V150.09c7.06,4.38,20.6,6.65,34,6.65s27-2.27,34-6.65v15.39C202.32,168.44,190.31,174.22,168.29,174.22Z"/><path d="M86.8,33.72H13.74a2.5,2.5,0,0,0-2.5,2.5v45a2.5,2.5,0,0,0,2.5,2.5H86.8a2.5,2.5,0,0,0,2.5-2.5v-45A2.5,2.5,0,0,0,86.8,33.72Zm-2.5,45H39.43l7.46-11.63a1.26,1.26,0,0,1,.73-.23,1.27,1.27,0,0,1,.88.36l5.88,4.71a6,6,0,0,0,9-.76L73,55.77a1.12,1.12,0,0,1,.79-.4,1.14,1.14,0,0,1,.9.34l9.65,9.64Zm0-20.4-6.11-6.11a6.15,6.15,0,0,0-9.28.66L59.32,68.19a1,1,0,0,1-.71.36,1,1,0,0,1-.81-.31l-5.88-4.7a6.23,6.23,0,0,0-8.71.11l-.19.19L33.49,78.68H16.24v-40H84.3Z"/><path d="M31.28,63.8A10.93,10.93,0,1,0,20.35,52.87,10.94,10.94,0,0,0,31.28,63.8Zm0-16.86a5.93,5.93,0,1,1-5.93,5.93A5.94,5.94,0,0,1,31.28,46.94Z"/></g></g></svg>